<svg xmlns="http://www.w3.org/2000/svg" height="574pt" version="1.1" viewBox="0 -38 574.406 574" width="574pt">
<g id="surface1">
<path d="M 562.472656 338.929688 L 160.210938 338.929688 L 160.210938 147.710938 C 160.210938 141.347656 155.050781 136.183594 148.6875 136.183594 L 11.527344 136.183594 C 5.164062 136.183594 0 141.347656 0 147.710938 L 0 487.039062 C 0 493.402344 5.164062 498.566406 11.527344 498.566406 L 562.472656 498.566406 C 568.835938 498.566406 574 493.402344 574 487.039062 L 574 350.457031 C 574 344.09375 568.835938 338.929688 562.472656 338.929688 Z M 23.050781 159.238281 L 137.160156 159.238281 L 137.160156 345.730469 L 23.050781 459.261719 Z M 550.949219 475.511719 L 39.417969 475.511719 L 152.953125 361.980469 L 168.742188 361.980469 L 168.742188 390.566406 C 168.742188 396.929688 173.90625 402.09375 180.269531 402.09375 C 186.632812 402.09375 191.792969 396.929688 191.792969 390.566406 L 191.792969 361.980469 L 214.847656 361.980469 L 214.847656 390.566406 C 214.847656 396.929688 220.011719 402.09375 226.371094 402.09375 C 232.734375 402.09375 237.898438 396.929688 237.898438 390.566406 L 237.898438 361.980469 L 260.953125 361.980469 L 260.953125 415 C 260.953125 421.363281 266.113281 426.527344 272.476562 426.527344 C 278.839844 426.527344 284.003906 421.363281 284.003906 415 L 284.003906 361.980469 L 307.054688 361.980469 L 307.054688 390.566406 C 307.054688 396.929688 312.21875 402.09375 318.582031 402.09375 C 324.945312 402.09375 330.109375 396.929688 330.109375 390.566406 L 330.109375 361.980469 L 353.160156 361.980469 L 353.160156 390.566406 C 353.160156 396.929688 358.324219 402.09375 364.6875 402.09375 C 371.046875 402.09375 376.210938 396.929688 376.210938 390.566406 L 376.210938 361.980469 L 399.265625 361.980469 L 399.265625 415 C 399.265625 421.363281 404.429688 426.527344 410.789062 426.527344 C 417.152344 426.527344 422.316406 421.363281 422.316406 415 L 422.316406 361.980469 L 445.367188 361.980469 L 445.367188 390.566406 C 445.367188 396.929688 450.53125 402.09375 456.894531 402.09375 C 463.257812 402.09375 468.421875 396.929688 468.421875 390.566406 L 468.421875 361.980469 L 491.472656 361.980469 L 491.472656 390.566406 C 491.472656 396.929688 496.636719 402.09375 503 402.09375 C 509.363281 402.09375 514.523438 396.929688 514.523438 390.566406 L 514.523438 361.980469 L 552.5625 361.980469 Z M 550.949219 475.511719 " style=" stroke:none;fill-rule:nonzero;fill:rgb(0%,0%,0%);fill-opacity:1;" />
<path d="M 291.265625 328.671875 C 293.71875 328.648438 296.105469 327.839844 298.066406 326.367188 L 409.175781 244.875 C 409.175781 244.875 409.867188 243.953125 410.328125 243.492188 C 410.789062 243.03125 411.25 242.917969 411.597656 242.339844 L 529.046875 82.703125 C 539.59375 70.84375 542.335938 53.957031 536.078125 39.367188 C 532.261719 31.679688 526.558594 25.097656 519.480469 20.230469 L 505.996094 10.550781 C 498.019531 4.246094 488.257812 0.613281 478.101562 0.175781 C 463.972656 0.648438 451.003906 8.117188 443.523438 20.117188 L 326.535156 180.214844 C 326.15625 180.871094 325.855469 181.574219 325.613281 182.289062 C 325.613281 182.289062 325.613281 182.980469 324.921875 183.328125 L 280.429688 313.457031 C 278.390625 319.484375 281.628906 326.03125 287.65625 328.058594 C 288.855469 328.464844 290.113281 328.671875 291.382812 328.671875 C 291.378906 328.671875 291.265625 328.671875 291.265625 328.671875 Z M 462.429688 33.71875 C 465.734375 27.851562 471.636719 23.910156 478.332031 23.113281 C 483.601562 23.597656 488.589844 25.683594 492.625 29.105469 L 505.765625 38.789062 C 509.660156 41.347656 512.878906 44.828125 515.101562 48.933594 C 516.023438 51.007812 519.019531 57.347656 510.492188 68.988281 L 502.882812 79.359375 L 478.910156 61.726562 L 454.820312 44.207031 Z M 441.105469 62.761719 L 455.859375 73.597656 L 386.699219 167.421875 C 382.621094 172.308594 383.289062 179.582031 388.175781 183.648438 C 393.0625 187.71875 400.335938 187.058594 404.402344 182.171875 C 404.714844 181.804688 404.992188 181.425781 405.257812 181.019531 L 474.414062 87.199219 L 489.054688 98.03125 L 399.957031 219.519531 L 352.007812 184.25 Z M 341.632812 205.339844 L 382.898438 235.65625 L 357.308594 254.441406 L 331.375 235.425781 Z M 323.539062 258.246094 L 337.828125 268.734375 L 314.085938 286.140625 Z M 323.539062 258.246094 " style=" stroke:none;fill-rule:nonzero;fill:rgb(0%,0%,0%);fill-opacity:1;" />
</g>
</svg>